<svg xmlns="http://www.w3.org/2000/svg" xmlns:xlink="http://www.w3.org/1999/xlink" width="500" zoomAndPan="magnify" viewBox="0 0 375 187.499995" height="250" preserveAspectRatio="xMidYMid meet" version="1.0"><defs><g/></defs><g fill="#000000" fill-opacity="1"><g transform="translate(85.885945, 110.887447)"><g><path d="M 20.15625 0.4375 C 22.824219 0.4375 28.832031 -0.046875 31.300781 -1.066406 C 31.882812 -1.308594 32.320312 -1.890625 32.320312 -2.617188 L 32.320312 -6.878906 C 32.367188 -8.140625 31.109375 -8.867188 30.089844 -8.238281 C 28.832031 -7.558594 24.035156 -6.589844 22.53125 -6.589844 C 19.867188 -6.589844 17.878906 -7.800781 17.636719 -10.855469 C 17.542969 -12.742188 17.542969 -15.941406 17.785156 -18.027344 C 18.027344 -19.332031 19.089844 -20.253906 20.59375 -20.253906 C 22.484375 -20.304688 28.105469 -20.0625 29.996094 -19.867188 C 30.816406 -19.769531 31.542969 -20.59375 31.542969 -21.417969 L 31.542969 -24.859375 C 31.542969 -25.730469 30.816406 -26.410156 29.996094 -26.410156 C 27.039062 -26.410156 22.484375 -26.3125 19.527344 -26.3125 C 18.945312 -26.3125 18.460938 -26.796875 18.460938 -27.425781 C 18.460938 -28.78125 18.65625 -29.558594 18.753906 -30.964844 C 18.847656 -31.835938 18.074219 -32.417969 17.25 -32.515625 C 16.136719 -32.707031 15.070312 -32.757812 13.957031 -32.757812 C 12.839844 -32.757812 11.726562 -32.707031 10.613281 -32.515625 C 9.789062 -32.417969 9.207031 -31.835938 9.109375 -30.964844 C 8.867188 -29.605469 8.820312 -28.636719 8.820312 -27.425781 C 8.820312 -26.84375 8.382812 -26.359375 7.753906 -26.359375 L 2.230469 -26.359375 C 1.40625 -26.359375 0.679688 -25.632812 0.679688 -24.808594 L 0.679688 -21.855469 C 0.679688 -20.980469 1.40625 -20.253906 2.230469 -20.253906 C 4.070312 -20.304688 5.910156 -20.304688 7.703125 -20.304688 C 8.285156 -20.304688 8.867188 -19.820312 8.769531 -19.238281 C 8.382812 -16.183594 8.238281 -11.582031 8.238281 -8.722656 C 8.335938 -2.714844 13.761719 0.4375 20.15625 0.4375 Z M 20.15625 0.4375 "/></g></g></g><g fill="#000000" fill-opacity="1"><g transform="translate(114.322263, 110.887447)"><g><path d="M 6.347656 0.242188 C 7.753906 0.242188 9.496094 0.195312 10.515625 0.046875 C 11.242188 -0.046875 11.96875 -0.679688 11.871094 -1.597656 C 11.628906 -3.585938 11.242188 -6.976562 11.242188 -10.078125 C 11.242188 -15.117188 15.992188 -19.285156 21.03125 -19.285156 C 23.792969 -19.285156 26.652344 -18.753906 29.363281 -16.667969 C 30.238281 -15.894531 31.882812 -16.183594 31.980469 -17.589844 C 32.125 -19.722656 32.222656 -21.078125 32.222656 -23.210938 C 32.222656 -24.179688 31.738281 -24.761719 30.914062 -25.195312 C 29.414062 -26.117188 26.601562 -26.746094 24.421875 -26.746094 C 19.285156 -26.746094 15.167969 -24.953125 12.792969 -20.546875 C 12.210938 -19.429688 11.484375 -19.820312 11.484375 -20.882812 C 11.484375 -22.53125 11.824219 -23.308594 12.257812 -24.710938 C 12.550781 -25.4375 11.921875 -26.167969 10.949219 -26.359375 C 10.175781 -26.503906 8.09375 -26.601562 7.074219 -26.601562 C 5.960938 -26.601562 4.410156 -26.503906 3.488281 -26.359375 C 2.761719 -26.261719 2.230469 -25.679688 2.132812 -24.90625 C 1.40625 -17.542969 1.503906 -12.257812 1.453125 -1.597656 C 1.453125 -0.726562 2.035156 -0.0976562 2.808594 0 C 3.925781 0.144531 5.71875 0.242188 6.347656 0.242188 Z M 6.347656 0.242188 "/></g></g></g><g fill="#000000" fill-opacity="1"><g transform="translate(142.95237, 110.887447)"><g><path d="M 12.5 0.4375 C 17.445312 0.4375 22.191406 -2.035156 24.226562 -5.085938 C 24.808594 -5.960938 25.730469 -5.667969 25.535156 -4.554688 C 25.4375 -3.828125 25.246094 -2.566406 25.148438 -2.035156 C 24.90625 -1.015625 25.679688 -0.195312 26.652344 -0.046875 C 27.765625 0.195312 29.75 0.242188 30.769531 0.242188 C 32.078125 0.242188 33.53125 0.144531 34.453125 -0.046875 C 35.421875 -0.195312 36.101562 -0.871094 36.050781 -1.890625 C 35.90625 -5.816406 35.421875 -12.308594 35.082031 -15.601562 C 34.257812 -23.453125 28.347656 -26.796875 18.21875 -26.796875 C 13.859375 -26.796875 9.304688 -26.214844 5.523438 -25.195312 C 4.796875 -25.003906 4.457031 -24.324219 4.359375 -23.550781 C 4.214844 -22.582031 3.730469 -19.332031 3.632812 -18.316406 C 3.539062 -16.960938 4.894531 -16.234375 5.816406 -17.007812 C 9.351562 -19.480469 14.246094 -20.546875 18.558594 -20.546875 C 23.453125 -20.546875 25.148438 -19.382812 25.148438 -18.414062 C 25.148438 -16.621094 22.824219 -16.328125 14.730469 -15.699219 C 6.152344 -14.972656 1.015625 -12.308594 1.015625 -7.21875 C 1.015625 -2.082031 5.378906 0.4375 12.5 0.4375 Z M 16.863281 -5.960938 C 12.550781 -5.960938 10.902344 -6.785156 10.902344 -8.527344 C 10.902344 -11 15.359375 -12.890625 20.546875 -12.890625 C 23.839844 -12.890625 25.003906 -12.015625 25.003906 -10.707031 C 25.003906 -8.09375 20.546875 -5.960938 16.863281 -5.960938 Z M 16.863281 -5.960938 "/></g></g></g><g fill="#000000" fill-opacity="1"><g transform="translate(175.894143, 110.887447)"><g><path d="M 19.820312 0.4375 C 23.839844 0.4375 29.703125 -0.195312 33.09375 -1.113281 C 33.773438 -1.308594 34.355469 -2.082031 34.257812 -3.003906 C 34.066406 -4.941406 33.917969 -6.734375 33.726562 -8.480469 C 33.578125 -9.933594 32.320312 -10.613281 31.300781 -9.644531 C 28.78125 -7.558594 24.761719 -6.394531 21.515625 -6.394531 C 15.117188 -6.394531 10.902344 -8.769531 10.902344 -13.132812 C 10.902344 -17.589844 14.683594 -20.011719 20.980469 -20.011719 C 23.839844 -20.011719 28.105469 -19.042969 30.382812 -17.492188 C 31.59375 -16.523438 32.609375 -17.007812 32.851562 -18.703125 C 33.046875 -20.15625 33.144531 -21.855469 33.335938 -23.308594 C 33.386719 -24.082031 32.707031 -24.859375 31.933594 -25.148438 C 29.265625 -26.117188 23.9375 -26.796875 19.820312 -26.796875 C 8.722656 -26.796875 1.015625 -21.613281 1.015625 -13.132812 C 1.015625 -4.699219 8.671875 0.4375 19.820312 0.4375 Z M 19.820312 0.4375 "/></g></g></g><g fill="#000000" fill-opacity="1"><g transform="translate(206.801196, 110.887447)"><g><path d="M 6.976562 0.242188 C 7.945312 0.242188 9.402344 0.195312 10.417969 0.046875 C 11.191406 -0.046875 11.921875 -0.726562 11.773438 -1.597656 C 11.242188 -4.265625 11.046875 -6.589844 11.191406 -9.109375 C 11.289062 -10.320312 12.453125 -11.046875 13.808594 -11.046875 C 20.253906 -11.046875 28.152344 -7.21875 28.878906 -1.210938 C 28.976562 -0.628906 29.507812 -0.0976562 30.285156 0 C 31.691406 0.195312 33.96875 0.242188 34.984375 0.242188 C 35.761719 0.242188 37.164062 0.195312 38.472656 0 C 39.296875 -0.0976562 39.878906 -0.53125 39.832031 -1.210938 C 39.007812 -7.996094 35.277344 -12.453125 23.160156 -13.472656 C 22.097656 -13.566406 22.097656 -14.292969 23.160156 -14.441406 C 34.5 -15.601562 37.457031 -19.820312 37.503906 -25.101562 C 37.503906 -25.777344 36.921875 -26.214844 36.148438 -26.359375 C 34.839844 -26.601562 33.675781 -26.601562 32.804688 -26.601562 C 31.882812 -26.601562 30.089844 -26.554688 28.878906 -26.359375 C 28.152344 -26.261719 27.714844 -25.730469 27.621094 -25.195312 C 26.941406 -20.449219 20.882812 -16.71875 14.246094 -16.71875 C 12.648438 -16.71875 11.242188 -17.785156 11.242188 -19.578125 C 11.242188 -23.984375 12.066406 -29.605469 12.742188 -33.191406 C 12.9375 -34.015625 12.210938 -34.742188 11.484375 -34.886719 C 10.613281 -35.082031 8.578125 -35.128906 7.316406 -35.128906 C 6.25 -35.128906 4.894531 -35.082031 4.023438 -34.886719 C 3.296875 -34.742188 2.761719 -34.210938 2.664062 -33.433594 C 1.890625 -26.117188 1.648438 -12.257812 1.597656 -1.597656 C 1.597656 -0.726562 2.179688 -0.0976562 2.957031 0 C 4.070312 0.144531 5.960938 0.242188 6.976562 0.242188 Z M 6.976562 0.242188 "/></g></g></g><g fill="#000000" fill-opacity="1"><g transform="translate(243.231069, 110.887447)"><g><path d="M 6.878906 -28.492188 C 10.128906 -28.492188 12.40625 -29.996094 12.40625 -32.273438 C 12.40625 -34.550781 10.128906 -36.050781 6.878906 -36.050781 C 3.632812 -36.050781 1.355469 -34.550781 1.355469 -32.273438 C 1.355469 -29.996094 3.632812 -28.492188 6.878906 -28.492188 Z M 7.027344 0.242188 C 7.609375 0.242188 9.402344 0.195312 10.515625 0 C 11.242188 -0.144531 11.824219 -0.726562 11.824219 -1.597656 C 11.824219 -12.257812 11.824219 -17.589844 11.242188 -24.90625 C 11.144531 -25.925781 10.660156 -26.214844 9.933594 -26.359375 C 9.109375 -26.554688 7.609375 -26.601562 7.074219 -26.601562 C 6.394531 -26.601562 4.75 -26.503906 3.875 -26.359375 C 3.148438 -26.261719 2.617188 -25.925781 2.566406 -24.90625 C 1.988281 -17.589844 1.9375 -12.308594 1.9375 -1.648438 C 1.9375 -0.773438 2.519531 -0.144531 3.296875 0 C 4.410156 0.242188 6.347656 0.242188 7.027344 0.242188 Z M 7.027344 0.242188 "/></g></g></g><g fill="#000000" fill-opacity="1"><g transform="translate(252.434424, 110.887447)"><g><path d="M 20.398438 0.4375 C 25.195312 0.4375 31.398438 -0.484375 34.839844 -2.179688 C 35.421875 -2.421875 35.710938 -3.101562 35.710938 -3.78125 C 35.710938 -5.332031 35.613281 -7.027344 35.519531 -8.578125 C 35.421875 -10.03125 34.308594 -10.515625 33.242188 -9.644531 C 30.382812 -7.558594 25.730469 -6.105469 21.902344 -6.105469 C 17.394531 -6.105469 12.453125 -7.945312 10.707031 -10.078125 C 9.691406 -11.144531 10.417969 -12.164062 11.773438 -11.582031 C 14.585938 -10.371094 18.21875 -9.933594 22.046875 -9.933594 C 28.78125 -9.933594 34.9375 -12.742188 34.9375 -17.832031 C 34.9375 -23.402344 28.394531 -26.796875 18.898438 -26.796875 C 8.480469 -26.796875 1.015625 -21.707031 1.015625 -13.277344 C 1.015625 -4.699219 8.480469 0.4375 20.398438 0.4375 Z M 19.769531 -14.148438 C 16.136719 -14.148438 10.320312 -14.828125 10.320312 -16.71875 C 10.320312 -19.1875 14.875 -20.738281 19.089844 -20.738281 C 24.082031 -20.738281 26.019531 -19.140625 26.019531 -17.296875 C 26.019531 -15.214844 23.644531 -14.148438 19.769531 -14.148438 Z M 19.769531 -14.148438 "/></g></g></g></svg>